<?xml version="1.0" encoding="utf-8"?>
<!-- Generator: Adobe Illustrator 24.1.1, SVG Export Plug-In . SVG Version: 6.00 Build 0)  -->
<svg version="1.1" id="Layer_1" xmlns="http://www.w3.org/2000/svg" xmlns:xlink="http://www.w3.org/1999/xlink" x="0px" y="0px"
	 viewBox="0 0 290.9 67" style="enable-background:new 0 0 290.9 67;" xml:space="preserve">
<path d="M22.8,66.3c-3.2,0-4.2-1.7-4.2-5.1V8.6H8.4v52.6c0,3.3-1.1,5.1-4.2,5.1c-3.2,0-4.3-1.7-4.3-5.1V5.4c0-3.2,1.5-4.7,4.7-4.7
	h17.7c3.2,0,4.7,1.5,4.7,4.7v55.8C27.1,64.5,26,66.3,22.8,66.3L22.8,66.3z M40.9,10.3C41.7,3.5,44.9,0,51.2,0
	c6.2,0,9.5,3.5,10.3,10.3l4.4,40.8C67.1,62.8,58.2,67,51.2,67s-16-4.2-14.9-15.8L40.9,10.3z M51.2,7.9c-1.3,0-1.7,1.1-2,2.9
	l-4.6,41.1c-0.4,5.1,2.9,7,6.6,7c3.6,0,7-1.9,6.6-7l-4.6-41.1C52.9,9,52.5,7.9,51.2,7.9L51.2,7.9z M99.5,66.3
	c-3.2,0-4.3-1.7-4.3-5.1V8.6h-6.4c-4.2,0-3.9,3.9-3.9,5.8v45.8c0,3.8-2.7,6.2-6.2,6.2h-4.2c-2.9,0-4.4-0.8-4.4-3.9
	c0-3.1,1.5-3.9,4.4-3.9h2V14.3c0-4.3,2.1-5.3,5-5.8h-7c-2.9,0-4.4-0.9-4.4-4c0-2.9,1.5-3.9,4.4-3.9h24.4c3.1,0,4.7,1.5,4.7,4.7v55.8
	C103.6,64.5,102.7,66.3,99.5,66.3L99.5,66.3L99.5,66.3z M138.5,66.3c-3.2,0-4.3-1.7-4.3-5.1V21.4l-10.2,8v31.8
	c0,3.3-0.9,5.1-4.2,5.1c-3.2,0-4.3-1.7-4.3-5.1V5.4c0-3.2,1.1-4.7,4.3-4.7c3.2,0,4.2,1.5,4.2,4.7v13.5l10.2-8V5.4
	c0-3.2,1.1-4.7,4.3-4.7c3.1,0,4.2,1.5,4.2,4.7v55.8C142.6,64.5,141.5,66.3,138.5,66.3L138.5,66.3z M165.5,61.2
	c0,3.3-0.9,5.1-4.2,5.1c-3.2,0-4.2-1.7-4.2-5.1V8.6h-4.4c-3.2,0-4.8-0.9-4.8-4c0-2.9,1.6-3.9,4.8-3.9h17.3c3.2,0,4.7,0.9,4.7,3.9
	c0,3.1-1.5,4-4.7,4h-4.6L165.5,61.2L165.5,61.2z M207.2,61.2c0,3.3-1.1,5.1-4.3,5.1c-3.2,0-4.2-1.7-4.2-5.1V21.4l-10.2,8v31.8
	c0,3.3-1.1,5.1-4.3,5.1c-3.2,0-4.2-1.7-4.2-5.1V5.4c0-3.2,0.9-4.7,4.2-4.7c3.2,0,4.3,1.5,4.3,4.7v13.5l10.2-8V5.4
	c0-3.2,0.9-4.7,4.2-4.7s4.3,1.5,4.3,4.7L207.2,61.2L207.2,61.2z M237.8,60.1V31.2c0-4.1-0.9-6.2-5.1-6.2h-5.2v36.2
	c0,3.3-0.9,5.1-4.2,5.1c-3.2,0-4.2-1.7-4.2-5.1V5.4c0-3.2,0.9-4.7,4.2-4.7c3.2,0,4.2,1.5,4.2,4.7v11.9h5.2c4.2,0,5.1-1.9,5.1-6V6.8
	c0-3.5,2.3-6.2,5.8-6.2h4.8c2.9,0,4.6,0.9,4.6,3.9c0,3.1-1.6,4-4.6,4h-2.1v5.8c0,4.9-3.1,6.6-6.4,6.8c3.4,0.3,6.4,2,6.4,7v30.4h2.1
	c2.9,0,4.6,0.8,4.6,3.9c0,3.1-1.6,3.9-4.6,3.9h-4.8C240.1,66.3,237.8,64,237.8,60.1L237.8,60.1z M290.9,61.2c0,3.3-1.1,5.1-4.2,5.1
	c-3.2,0-4.3-1.7-4.3-5.1V25h-10.3v35.1c0,3.8-2.7,6.2-6.2,6.2h-4.2c-3.1,0-4.4-0.8-4.4-3.9s1.3-3.9,4.4-3.9h1.9V14.3
	c0-4.3,2.5-5.4,5.1-5.8h-7c-3.1,0-4.4-0.9-4.4-4c0-2.9,1.3-3.9,4.4-3.9H286c3.2,0,4.8,1.5,4.8,4.7L290.9,61.2L290.9,61.2z
	 M282.4,8.6h-6.6c-4,0-3.8,3.9-3.8,5.8v2.9h10.3V8.6z"/>
</svg>
